<svg width="70" height="65" viewBox="0 0 70 65" fill="none" xmlns="http://www.w3.org/2000/svg">
<path d="M8.86587 36.9558L12.8421 52.8296H22.1378L16.3884 30.8094L21.8154 13.065H13.0033L8.86587 27.1215V13.065H0V52.8296H8.86587V36.9558Z" fill="#4D97C8"/>
<path d="M24.9036 52.8942H37.6382C42.8502 52.8942 45.5906 50.008 45.5906 43.7547V21.8949C45.5906 15.5347 42.5278 13.1296 37.5844 13.1296H24.9036V52.8942ZM33.662 20.5053H35.0053C36.2411 20.5053 36.5635 21.1466 36.5635 22.8035V42.8461C36.5635 44.503 36.1874 45.2513 34.8978 45.2513H33.662V20.5053Z" fill="#505050"/>
<path d="M69.9999 23.2567C69.9999 16.4689 67.1521 12.0328 60.0594 12.0328H58.3399C51.301 12.0328 48.3994 16.4155 48.3994 23.2567V42.1235C48.3994 49.0182 51.892 52.9199 58.3937 52.9199H60.1131C66.1849 52.9199 69.9999 49.0182 69.9999 42.1235V23.2567ZM60.8116 42.7115C60.8116 43.9407 60.3818 44.689 59.2534 44.689C58.0175 44.689 57.5877 43.9407 57.5877 42.7115V22.3481C57.5877 20.8516 57.9638 20.1033 59.1997 20.1033C60.2743 20.1033 60.8116 20.8516 60.8116 22.3481V42.7115Z" fill="#505050"/>
<path d="M55.4639 10.3485L55.4394 10.4609L51.2697 9.5509C50.9237 9.47538 50.7038 9.13471 50.78 8.78919C50.8561 8.44388 51.1989 8.22631 51.5447 8.30178L54.7853 9.009C53.823 5.72324 51.2496 3.09932 47.8856 2.36516C42.9739 1.29325 38.1145 4.63483 37.0848 9.92837C37.0172 10.2755 36.68 10.5015 36.3324 10.4346C35.9846 10.3676 35.7563 10.0325 35.8238 9.68522C36.977 3.75697 42.4754 -0.124695 48.1606 1.11604C51.4833 1.8412 54.0947 4.15577 55.4514 7.12916L55.8077 5.29759C55.8752 4.95047 56.2124 4.7245 56.56 4.7914C56.9078 4.85834 57.1362 5.19345 57.0686 5.54074L56.2093 9.95816C56.1445 10.2913 55.8312 10.5129 55.4988 10.471M55.4639 10.3485L55.4986 10.471C55.4986 10.471 55.4987 10.471 55.4988 10.471M55.4639 10.3485L55.4394 10.4609C55.4592 10.4652 55.479 10.4686 55.4988 10.471M55.4639 10.3485L55.4988 10.471M37.4431 59.6033L37.8153 57.7774C39.1447 60.7636 41.7348 63.1037 45.0503 63.8621C50.7242 65.1599 56.2567 61.3332 57.463 55.4165C57.5337 55.0699 57.3083 54.7327 56.9611 54.6627C56.6141 54.5927 56.2749 54.8157 56.2043 55.1622C55.1273 60.4444 50.2397 63.737 45.3379 62.6158C41.9805 61.8479 39.4309 59.1982 38.4986 55.9033L41.7298 56.6424C42.0748 56.7213 42.4197 56.5072 42.4994 56.1626C42.5791 55.8179 42.3626 55.475 42.0173 55.3961L37.8563 54.4443C37.6877 54.4057 37.5105 54.4365 37.3649 54.5298C37.2194 54.6231 37.1177 54.7711 37.0832 54.9403L36.1844 59.3489C36.1137 59.6956 36.339 60.0327 36.6862 60.1027C37.0332 60.1727 37.3724 59.9497 37.4431 59.6033Z" fill="#4D97C8" stroke="#4D97C8" stroke-width="0.23"/>
</svg>
